<?xml version="1.0" encoding="UTF-8"?>
<svg id="_圖層_2" data-name="圖層 2" xmlns="http://www.w3.org/2000/svg" viewBox="0 0 213.02 108.19">
  <defs>
    <style>
      .cls-1 {
        fill: #ffbccd;
        stroke-width: 0px;
      }
    </style>
  </defs>
  <g id="bg">
    <g>
      <path class="cls-1" d="M210.57,53.56c-.86-.18-1.72-.35-2.58-.53-.41-.1-.82-.09-1.21.02-.4.05-.76.19-1.1.43-.35.21-.62.49-.82.84-.26.32-.43.69-.5,1.11-.02.27-.04.55-.06.82.04.54.21,1.04.51,1.49.17.2.34.4.51.6.41.37.89.61,1.44.72.86.18,1.72.35,2.58.53.41.1.82.09,1.21-.02.4-.05.76-.19,1.1-.43.35-.21.62-.49.82-.84.26-.32.43-.69.5-1.11.02-.27.04-.55.06-.82-.04-.54-.21-1.04-.51-1.49-.17-.2-.34-.4-.51-.6-.41-.37-.89-.61-1.44-.72h0Z"/>
      <path class="cls-1" d="M187.24,75.72c-.43-.09-.86-.18-1.29-.26-.41-.1-.82-.09-1.21.02-.4.05-.76.19-1.1.43-.35.21-.62.49-.82.84-.26.32-.43.69-.5,1.11-.02.27-.04.55-.06.82.04.54.21,1.04.51,1.49.17.2.34.4.51.6.41.37.89.61,1.44.72.43.09.86.18,1.29.26.41.1.82.09,1.21-.02.4-.05.76-.19,1.1-.43.35-.21.62-.49.82-.84.26-.32.43-.69.5-1.11.02-.27.04-.55.06-.82-.04-.54-.21-1.04-.51-1.49-.17-.2-.34-.4-.51-.6-.41-.37-.89-.61-1.44-.72h0Z"/>
      <path class="cls-1" d="M191.29,102.09c-3.88-.79-5.11,5.24-1.23,6.03,3.88.79,5.11-5.24,1.23-6.03h0Z"/>
      <path class="cls-1" d="M156.92,99.14c-2.58-.53-5.17-1.05-7.75-1.58-1.58-.32-3.37.76-3.63,2.4-.26,1.65.71,3.29,2.4,3.63,2.58.53,5.17,1.05,7.75,1.58,1.58.32,3.37-.76,3.63-2.4.26-1.65-.71-3.29-2.4-3.63h0Z"/>
      <path class="cls-1" d="M153.11,78.19c-.43-.09-.86-.18-1.29-.26-.41-.1-.82-.09-1.21.02-.4.05-.76.19-1.1.43-.35.21-.62.49-.82.84-.26.32-.43.69-.5,1.11-.02.27-.04.55-.06.82.04.54.21,1.04.51,1.49.17.2.34.4.51.6.41.37.89.61,1.44.72.43.09.86.18,1.29.26.41.1.82.09,1.21-.02.4-.05.76-.19,1.1-.43.35-.21.62-.49.82-.84.26-.32.43-.69.5-1.11.02-.27.04-.55.06-.82-.04-.54-.21-1.04-.51-1.49-.17-.2-.34-.4-.51-.6-.41-.37-.89-.61-1.44-.72h0Z"/>
      <path class="cls-1" d="M111.75,83.23c-1.72-.35-3.44-.7-5.17-1.05-.77-.16-1.65.01-2.31.45-.63.42-1.2,1.2-1.32,1.95-.12.79-.03,1.65.45,2.31.48.66,1.14,1.15,1.95,1.32,1.72.35,3.44.7,5.17,1.05.77.16,1.65-.01,2.31-.45.63-.42,1.2-1.19,1.32-1.95.12-.79.03-1.65-.45-2.31-.48-.66-1.14-1.15-1.95-1.32h0Z"/>
      <path class="cls-1" d="M128.9,51.75c-3.88-.79-5.11,5.24-1.23,6.03,3.88.79,5.11-5.24,1.23-6.03h0Z"/>
      <path class="cls-1" d="M176.25,37.17c-3.88-.79-5.11,5.24-1.23,6.03,3.88.79,5.11-5.24,1.23-6.03h0Z"/>
      <path class="cls-1" d="M90.4,49.3c-1.72-.35-3.44-.7-5.17-1.05-.77-.16-1.65.01-2.31.45-.63.42-1.2,1.2-1.32,1.95-.12.79-.03,1.65.45,2.31.48.66,1.14,1.15,1.95,1.32,1.72.35,3.44.7,5.17,1.05.77.16,1.65-.01,2.31-.45.63-.42,1.2-1.19,1.32-1.95.12-.79.03-1.65-.45-2.31-.48-.66-1.14-1.15-1.95-1.32h0Z"/>
      <path class="cls-1" d="M76.13,66.57c-2.58-.53-5.17-1.05-7.75-1.58-1.58-.32-3.37.76-3.63,2.4-.26,1.65.71,3.29,2.4,3.63,2.58.53,5.17,1.05,7.75,1.58,1.58.32,3.37-.76,3.63-2.4.26-1.65-.71-3.29-2.4-3.63h0Z"/>
      <path class="cls-1" d="M43.09,39.85c-4.09-.25-8.42,1.17-11.6,3.75-.65.53-1.14,1.1-1.32,1.95-.15.74,0,1.69.45,2.31.47.64,1.14,1.19,1.95,1.32.76.12,1.69.06,2.31-.45.84-.68,1.74-1.26,2.71-1.75-.24.12-.47.23-.71.35,1.15-.56,2.35-.98,3.6-1.24-.26.05-.52.11-.78.16,1.25-.25,2.52-.34,3.8-.26.71.04,1.63-.52,2.08-1.02.51-.57.86-1.49.78-2.26-.09-.78-.4-1.57-1.02-2.08-.22-.15-.44-.3-.66-.45-.51-.25-1.04-.36-1.6-.33h0Z"/>
      <path class="cls-1" d="M3.6,39.72c-3.88-.79-5.11,5.24-1.23,6.03,3.88.79,5.11-5.24,1.23-6.03h0Z"/>
      <path class="cls-1" d="M15.04,16.5c-3.01-.61-6.03-1.23-9.04-1.84-1.58-.32-3.37.76-3.63,2.4-.26,1.65.71,3.29,2.4,3.63,3.01.61,6.03,1.23,9.04,1.84,1.58.32,3.37-.76,3.63-2.4.26-1.65-.71-3.29-2.4-3.63h0Z"/>
      <path class="cls-1" d="M68.78,23.39c-3.88-.79-5.11,5.24-1.23,6.03,3.88.79,5.11-5.24,1.23-6.03h0Z"/>
      <path class="cls-1" d="M111.66,30.76c-1.29-.26-2.58-.53-3.87-.79-.77-.16-1.65.01-2.31.45-.35.21-.62.49-.82.84-.26.32-.43.69-.5,1.11-.12.79-.03,1.65.45,2.31.48.66,1.14,1.15,1.95,1.32,1.29.26,2.58.53,3.87.79.77.16,1.65-.01,2.31-.45.35-.21.62-.49.82-.84.26-.32.43-.69.5-1.11.12-.79.03-1.65-.45-2.31-.48-.66-1.14-1.15-1.95-1.32h0Z"/>
      <path class="cls-1" d="M50.5.85c-1.29-.26-2.58-.53-3.87-.79-.77-.16-1.65.01-2.31.45-.35.21-.62.49-.82.84-.26.32-.43.69-.5,1.11-.12.79-.03,1.65.45,2.31.48.66,1.14,1.15,1.95,1.32,1.29.26,2.58.53,3.87.79.77.16,1.65-.01,2.31-.45.35-.21.62-.49.82-.84.26-.32.43-.69.5-1.11.12-.79.03-1.65-.45-2.31-.48-.66-1.14-1.15-1.95-1.32h0Z"/>
    </g>
  </g>
</svg>